<svg width="124" height="124" viewBox="0 0 124 124" fill="none" xmlns="http://www.w3.org/2000/svg">
<path d="M56.5933 5.93431C59.4945 2.75 64.5055 2.75001 67.4067 5.93431L71.6794 10.6239C73.604 12.7363 76.5825 13.5344 79.3055 12.6673L85.3505 10.7423C89.4552 9.43524 93.7948 11.9408 94.7152 16.1491L96.0706 22.3467C96.6812 25.1383 98.8616 27.3188 101.653 27.9293L107.851 29.2848C112.059 30.2052 114.565 34.5448 113.258 38.6495L111.333 44.6945C110.466 47.4175 111.264 50.396 113.376 52.3206L118.066 56.5933C121.25 59.4945 121.25 64.5055 118.066 67.4067L113.376 71.6794C111.264 73.604 110.466 76.5825 111.333 79.3055L113.258 85.3505C114.565 89.4552 112.059 93.7948 107.851 94.7152L101.653 96.0706C98.8616 96.6812 96.6812 98.8616 96.0706 101.653L94.7152 107.851C93.7948 112.059 89.4552 114.565 85.3505 113.258L79.3055 111.333C76.5825 110.466 73.604 111.264 71.6794 113.376L67.4067 118.066C64.5055 121.25 59.4945 121.25 56.5933 118.066L52.3206 113.376C50.396 111.264 47.4175 110.466 44.6945 111.333L38.6495 113.258C34.5448 114.565 30.2052 112.059 29.2848 107.851L27.9293 101.653C27.3188 98.8616 25.1383 96.6812 22.3467 96.0706L16.1491 94.7152C11.9408 93.7948 9.43524 89.4552 10.7423 85.3505L12.6673 79.3055C13.5344 76.5825 12.7363 73.604 10.6239 71.6794L5.93431 67.4067C2.75 64.5055 2.75001 59.4945 5.93431 56.5933L10.6239 52.3206C12.7363 50.396 13.5344 47.4175 12.6673 44.6945L10.7423 38.6495C9.43524 34.5448 11.9408 30.2052 16.1491 29.2848L22.3467 27.9293C25.1383 27.3188 27.3188 25.1383 27.9293 22.3467L29.2848 16.149C30.2052 11.9408 34.5448 9.43524 38.6495 10.7423L44.6945 12.6673C47.4175 13.5344 50.396 12.7363 52.3206 10.6239L56.5933 5.93431Z" fill="#FFB865"/>
<path d="M35.5411 66.0854C35.9314 66.7614 36.1605 67.4519 36.2285 68.1569C36.3027 68.8583 36.2107 69.5441 35.9525 70.2141C35.6881 70.8877 35.285 71.5215 34.7432 72.1155C34.2039 72.6997 33.4598 73.2658 32.5109 73.8136C31.4318 74.4367 30.4527 74.882 29.5736 75.1498C28.7007 75.4139 27.9579 75.574 27.3452 75.63L25.6104 72.6252L25.9453 72.4318C26.64 72.4607 27.3966 72.396 28.2149 72.2378C29.0393 72.076 29.7338 71.8322 30.2982 71.5064C30.6331 71.313 30.9798 71.0756 31.3383 70.7942C31.6994 70.5031 31.956 70.1812 32.1081 69.8288C32.2295 69.552 32.2877 69.2662 32.2828 68.9713C32.2806 68.6666 32.1595 68.3065 31.9196 67.891C31.6833 67.4816 31.4125 67.2204 31.1073 67.1071C30.7986 66.9877 30.4667 66.9643 30.1117 67.037C29.7531 67.1034 29.3625 67.2504 28.9398 67.4779C28.5171 67.7054 28.1476 67.9104 27.8313 68.0931L27.2359 68.4368L25.8287 65.9994L26.3776 65.6825C26.7993 65.439 27.1762 65.1966 27.5082 64.9553C27.8403 64.714 28.0981 64.4659 28.2817 64.2111C28.4618 63.95 28.5591 63.6746 28.5738 63.385C28.5947 63.0918 28.5013 62.7653 28.2937 62.4056C28.1325 62.1265 27.9367 61.9377 27.7062 61.8392C27.4721 61.7346 27.2303 61.6881 26.9807 61.6999C26.693 61.7172 26.3896 61.7931 26.0704 61.9278C25.7512 62.0625 25.4862 62.1907 25.2753 62.3124C24.9342 62.5094 24.6102 62.7502 24.3032 63.0349C23.9962 63.3196 23.7111 63.6207 23.4478 63.9381C23.2446 64.1877 23.0469 64.4755 22.8547 64.8015C22.659 65.1213 22.5161 65.3608 22.4262 65.5202L22.1378 65.6867L20.4245 62.7191C20.7839 62.2387 21.313 61.6727 22.0118 61.0212C22.7133 60.3598 23.4857 59.7857 24.3292 59.2987C25.1541 58.8225 25.9085 58.482 26.5924 58.2773C27.2826 58.0691 27.9204 57.9778 28.5059 58.0037C29.1455 58.023 29.7139 58.191 30.211 58.5077C30.7045 58.8182 31.1141 59.2556 31.44 59.82C31.8947 60.6077 32.0645 61.4317 31.9493 62.292C31.8367 63.1426 31.4584 63.8696 30.8145 64.4729L30.8897 64.6032C31.247 64.463 31.6148 64.3623 31.9929 64.3011C32.3772 64.2363 32.7952 64.2514 33.2469 64.3462C33.6656 64.4269 34.0759 64.6076 34.4778 64.8883C34.8823 65.1592 35.2367 65.5582 35.5411 66.0854ZM46.2605 56.2497C46.9516 57.4467 47.4606 58.5504 47.7876 59.5607C48.1145 60.571 48.2408 61.4987 48.1664 62.3437C48.092 63.1888 47.8063 63.9616 47.3093 64.662C46.8087 65.3562 46.0685 65.9861 45.0886 66.5519C44.1149 67.1141 43.2023 67.4384 42.3508 67.5248C41.4957 67.605 40.677 67.4616 39.8946 67.0947C39.1219 66.7304 38.3835 66.1603 37.6791 65.3844C36.9713 64.6023 36.2736 63.6159 35.5861 62.4251C34.8771 61.1971 34.365 60.0952 34.0497 59.1195C33.7407 58.1402 33.6255 57.2103 33.7042 56.3296C33.7838 55.465 34.0788 54.6869 34.5892 53.9953C35.096 53.2975 35.8207 52.6765 36.7634 52.1322C37.7619 51.5557 38.6843 51.2341 39.5305 51.1672C40.3794 51.0906 41.1968 51.2389 41.9828 51.612C42.7555 51.9763 43.4926 52.5513 44.1943 53.337C44.9022 54.119 45.5909 55.09 46.2605 56.2497ZM42.7719 58.2639C41.7836 56.5522 40.9481 55.4344 40.2654 54.9107C39.5852 54.3772 38.9103 54.3038 38.2404 54.6906C37.5768 55.0737 37.3029 55.6949 37.4186 56.5543C37.5308 57.4074 38.0846 58.6961 39.0801 60.4202C40.054 62.1072 40.8877 63.2218 41.5812 63.7641C42.2712 64.3002 42.9479 64.3767 43.6115 63.9936C44.2752 63.6104 44.5473 62.9861 44.428 62.1205C44.3051 61.2488 43.753 59.9633 42.7719 58.2639ZM54.4843 47.8922C55.3723 49.4303 55.6888 50.7733 55.4336 51.9212C55.1811 53.0593 54.4036 54.0043 53.1012 54.7563C51.7616 55.5297 50.5358 55.7413 49.4239 55.3909C48.312 55.0405 47.3174 54.1056 46.4401 52.5861C45.5628 51.0666 45.2566 49.7343 45.5216 48.589C45.7829 47.4375 46.571 46.4822 47.8859 45.7231C49.2255 44.9496 50.4437 44.7466 51.5406 45.1139C52.6401 45.4714 53.6214 46.3975 54.4843 47.8922ZM59.2517 39.5207L59.993 57.5623L57.537 58.9803L56.7957 40.9387L59.2517 39.5207ZM70.3525 45.9002C71.2406 47.4383 71.557 48.7813 71.3018 49.9292C71.0493 51.0673 70.2718 52.0123 68.9694 52.7643C67.6298 53.5377 66.404 53.7493 65.2921 53.3989C64.1802 53.0485 63.1856 52.1136 62.3083 50.5941C61.431 49.0746 61.1249 47.7423 61.3898 46.597C61.6512 45.4455 62.4392 44.4902 63.7541 43.7311C65.0937 42.9576 66.312 42.7546 67.4088 43.1219C68.5084 43.4794 69.4896 44.4055 70.3525 45.9002ZM51.8491 49.4509C51.6235 49.0601 51.399 48.7143 51.1756 48.4132C50.9584 48.1086 50.7375 47.8764 50.5129 47.7167C50.2884 47.5569 50.0557 47.4762 49.815 47.4746C49.5707 47.4668 49.309 47.5435 49.0299 47.7046C48.7322 47.8765 48.5319 48.0666 48.4289 48.2749C48.3223 48.477 48.2807 48.7201 48.3042 49.0043C48.3257 49.2565 48.4164 49.5638 48.5761 49.9264C48.7358 50.289 48.9231 50.6564 49.138 51.0285C49.4029 51.4875 49.6266 51.8462 49.809 52.1048C49.9877 52.3571 50.2046 52.5751 50.4594 52.7588C50.6778 52.9221 50.9109 53.0108 51.1588 53.0248C51.4093 53.029 51.6772 52.9488 51.9625 52.7841C52.2416 52.6229 52.4389 52.4346 52.5543 52.2191C52.6697 52.0037 52.7125 51.7556 52.6829 51.4751C52.6551 51.2265 52.5703 50.9364 52.4285 50.6048C52.2929 50.2696 52.0997 49.885 51.8491 49.4509ZM67.7173 47.4589C67.4917 47.0681 67.2672 46.7223 67.0438 46.4212C66.8266 46.1166 66.6057 45.8844 66.3812 45.7247C66.1566 45.5649 65.9239 45.4842 65.6832 45.4826C65.4389 45.4748 65.1772 45.5515 64.8981 45.7126C64.6004 45.8845 64.4001 46.0746 64.2971 46.2829C64.1905 46.485 64.1489 46.7281 64.1724 47.0123C64.194 47.2645 64.2846 47.5718 64.4443 47.9344C64.6041 48.297 64.7913 48.6644 65.0062 49.0365C65.2712 49.4955 65.4948 49.8542 65.6772 50.1128C65.856 50.3651 66.0728 50.5831 66.3277 50.7668C66.546 50.9301 66.7791 51.0188 67.027 51.0328C67.2775 51.037 67.5454 50.9568 67.8307 50.7921C68.1098 50.6309 68.3071 50.4426 68.4225 50.2271C68.5379 50.0117 68.5807 49.7636 68.5511 49.4831C68.5233 49.2345 68.4385 48.9444 68.2967 48.6128C68.1611 48.2776 67.9679 47.893 67.7173 47.4589ZM77.0572 43.1377C76.3522 43.5447 75.0511 43.0511 73.9511 41.1458C72.7521 39.0691 72.8257 35.3685 75.5763 32.9168C76.2497 34.6111 76.8417 36.4285 77.2065 38.0724C77.9184 41.0654 77.8383 42.6867 77.0572 43.1377ZM84.6705 44.3563C89.0156 40.8823 89.8263 36.6545 87.5383 32.6916C85.1623 28.5762 80.3282 27.0232 75.6603 29.7182C70.7638 32.5452 69.1284 38.4685 71.6364 42.8125C73.4734 45.9943 76.5762 47.2767 78.653 46.0777C80.7106 44.8897 81.0072 41.6193 79.9313 37.1597C79.4417 35.0799 78.7536 33.14 78.0964 31.3856C80.8834 30.3608 83.4152 31.4902 84.9222 34.1004C86.5062 36.8439 85.6401 39.6557 83.5504 41.6243C83.1211 42.0246 82.6426 42.4279 81.9736 42.9411L84.6705 44.3563ZM45.2557 92.8784C44.9159 93.7859 44.3878 94.6751 43.7123 95.5731C42.5778 95.7201 41.5436 95.7329 40.5879 95.5734L45.2557 92.8784ZM36.0852 92.4826L44.6208 87.5546L45.0608 88.3167L36.5252 93.2447L36.0852 92.4826ZM34.9192 90.463L43.4548 85.535L43.8948 86.2971L35.3592 91.2251L34.9192 90.463ZM33.7642 88.4625L42.2998 83.5345L42.7288 84.2776L34.1932 89.2056L33.7642 88.4625ZM46.3403 90.0929L45.9952 90.4192L40.5843 93.5432C40.6809 93.1826 40.7585 92.8329 40.8251 92.4642L48.0841 88.2732L43.8601 80.9571L38.1062 84.2791C38.0695 83.9954 38.0217 83.6927 37.9439 83.382L45.0506 79.279L43.9946 77.45L27.7046 86.855L28.7606 88.684L35.4862 84.801C35.5911 85.0707 35.696 85.3404 35.7818 85.6211L30.8662 88.4591L35.0902 95.7752L38.1196 94.0262C37.5594 95.696 36.3046 97.6145 34.2398 99.6703C34.846 99.7522 35.9037 100.132 36.4675 100.493C37.4177 99.4105 38.2126 98.3673 38.8712 97.352C39.7838 97.6126 40.7395 97.7721 41.7195 97.8414C40.016 99.5109 37.8756 101.128 35.6663 102.581C36.2652 102.87 37.0782 103.442 37.5496 103.907C40.2344 102.001 42.7902 99.916 44.7259 97.6807C47.4119 97.2731 50.3272 96.2504 53.4776 94.711C53.4113 93.9363 53.4359 92.7028 53.5881 91.9544C51.1515 93.2342 48.8365 94.2405 46.7274 94.8993C47.5829 93.3892 48.149 91.8177 48.2562 90.1553L46.3403 90.0929ZM57.4757 85.62C56.7707 86.027 55.4696 85.5334 54.3696 83.6281C53.1706 81.5514 53.2442 77.8508 55.9948 75.3991C56.6682 77.0934 57.2603 78.9108 57.625 80.5547C58.3369 83.5477 58.2568 85.169 57.4757 85.62ZM65.089 86.8386C69.4341 83.3646 70.2448 79.1368 67.9568 75.1739C65.5808 71.0585 60.7467 69.5055 56.0788 72.2005C51.1823 75.0275 49.5469 80.9508 52.0549 85.2948C53.8919 88.4766 56.9947 89.759 59.0715 88.56C61.1292 87.372 61.4257 84.1015 60.3498 79.642C59.8602 77.5621 59.1721 75.6223 58.5149 73.8679C61.3019 72.8431 63.8338 73.9725 65.3408 76.5827C66.9248 79.3262 66.0586 82.138 63.9689 84.1066C63.5396 84.5069 63.0611 84.9102 62.3921 85.4234L65.089 86.8386ZM75.0373 62.7536L75.7042 62.3686L76.5622 63.8547L82.1827 60.6097C83.0908 62.9306 83.6192 65.1659 83.8222 67.2334C82.054 66.0188 80.3714 64.4245 78.8133 62.6058L76.8943 64.2981C79.146 66.834 81.4392 68.914 83.8224 70.3579C83.6369 72.1924 83.1258 73.8593 82.2753 75.2902L75.0373 62.7536ZM74.6288 73.3541L77.3343 71.7921L78.3243 73.5068C77.4758 74.1491 76.6382 74.8105 75.8278 75.4308L74.6288 73.3541ZM72.3628 69.4293L75.0683 67.8673L76.1683 69.7725L73.4628 71.3345L72.3628 69.4293ZM72.8463 64.0186L73.8913 65.8286L71.1858 67.3906L70.1408 65.5806L72.8463 64.0186ZM81.8725 57.7404L81.5244 58.0176L75.8277 61.3066L75.0467 59.9539L65.4823 65.4759L66.6923 67.5716L67.9879 66.8236L73.8289 76.9405C73.2251 77.3908 72.6675 77.7889 72.1861 78.1431L73.9333 80.1573C75.5321 78.8786 77.5632 77.2486 79.5343 75.6026L81.2943 78.651L83.4853 77.386L82.4513 75.5951C83.1726 75.7883 84.094 76.1963 84.6658 76.5266C85.5104 74.9975 86.0845 73.3959 86.3742 71.6536C87.9597 72.2878 89.5876 72.6435 91.3342 72.6766C91.3361 71.888 91.5461 70.6236 91.8185 69.9075C90.0177 69.9564 88.2586 69.5495 86.588 68.812C86.5429 65.4339 85.5655 61.6289 83.5676 57.2444L81.8725 57.7404ZM92.2363 60.7751C91.9766 60.0613 91.6949 59.3094 91.4052 58.5876L96.9304 55.3976L93.2344 48.9959L85.2514 53.6049L86.4724 55.7197L92.2072 52.4087L93.4612 54.5807L88.1837 57.6277C89.201 59.9618 90.2977 62.9613 90.8934 65.0052L93.3888 64.0472C93.2919 63.7475 93.1841 63.4287 93.0652 63.0909L96.9329 60.8579C98.1643 63.4748 98.6096 64.8181 98.3965 65.373C98.2589 65.7065 98.0522 65.8766 97.6712 66.0966C97.1567 66.3936 95.9264 67.0785 94.7172 67.6242C95.5404 68.0381 96.4554 68.8308 96.9305 69.5218C98.1148 68.8889 99.277 68.2179 99.8998 67.7567C100.675 67.2075 101.11 66.728 101.313 65.8484C101.551 64.7204 100.827 62.6743 98.7006 58.2877C98.5818 57.9498 98.2378 57.3101 98.2378 57.3101L92.2363 60.7751ZM97.2682 46.0827L107.377 63.592L109.644 62.283L99.5355 44.7737L97.2682 46.0827Z" fill="white"/>
</svg>
