<svg width="210" height="300" viewBox="0 0 210 300" fill="none" xmlns="http://www.w3.org/2000/svg">
<path d="M63 107.228L114.311 21V72.7718H147L95.6891 159V107.228H63Z" fill="#4699D3"/>
<rect x="29" y="133" width="152" height="152" rx="12" fill="#545D6C"/>
<rect x="45" y="149" width="120" height="92" fill="#DFE0DF"/>
<circle cx="53" cy="263" r="8" fill="#748995"/>
<circle cx="82" cy="263" r="8" fill="#748995"/>
<circle cx="157" cy="263" r="8" fill="#748995"/>
<rect x="44" y="284" width="126" height="16" fill="#464D59"/>
<rect x="44" y="284" width="126" height="8" fill="#343A45"/>
<path fill-rule="evenodd" clip-rule="evenodd" d="M104.883 211.639L147.349 206.033L107.354 225.817L107.34 225.756C107.164 225.818 106.983 225.874 106.799 225.923C102.923 226.962 98.9392 224.662 97.9007 220.786C96.8622 216.911 99.1622 212.927 103.038 211.889C103.654 211.723 104.273 211.643 104.883 211.639Z" fill="#4699D3"/>
<path fill-rule="evenodd" clip-rule="evenodd" d="M105.5 166C105.34 166 105.181 166.001 105.022 166.002L104.958 156.003C105.138 156.001 105.319 156 105.5 156C105.681 156 105.861 156.001 106.042 156.003L105.977 166.002C105.818 166.001 105.659 166 105.5 166ZM108.825 166.125C108.509 166.101 108.192 166.081 107.875 166.064L108.197 160.072C108.558 160.092 108.918 160.115 109.277 160.142L108.825 166.125ZM103.125 166.064C102.807 166.081 102.491 166.101 102.175 166.125L101.723 160.142C102.082 160.115 102.442 160.092 102.803 160.072L103.125 166.064ZM111.655 166.432C111.342 166.387 111.029 166.346 110.714 166.309L111.425 160.351C111.783 160.394 112.14 160.44 112.495 160.491L111.655 166.432ZM100.286 166.309C99.971 166.346 99.6575 166.387 99.345 166.432L98.5042 160.491C98.8597 160.44 99.2165 160.394 99.5745 160.351L100.286 166.309ZM114.457 166.922C114.149 166.858 113.839 166.797 113.528 166.739L114.628 160.84C114.982 160.906 115.335 160.976 115.686 161.05L114.457 166.922ZM97.4719 166.739C97.1609 166.797 96.8511 166.858 96.5424 166.922L95.3136 161.05C95.665 160.976 96.0178 160.906 96.3719 160.84L97.4719 166.739ZM117.223 167.597C116.918 167.512 116.612 167.43 116.305 167.352L117.79 161.538C118.14 161.628 118.489 161.721 118.836 161.818L117.223 167.597ZM94.6947 167.352C94.3875 167.43 94.0815 167.512 93.777 167.597L92.1638 161.818C92.5108 161.721 92.8592 161.628 93.2092 161.538L94.6947 167.352ZM119.936 168.452C119.638 168.347 119.339 168.245 119.038 168.147L120.904 162.444C121.246 162.556 121.587 162.672 121.927 162.792L119.936 168.452ZM91.9617 168.147C91.6609 168.245 91.3615 168.347 91.0635 168.452L89.073 162.792C89.4123 162.672 89.7534 162.556 90.0961 162.444L91.9617 168.147ZM122.587 169.483C122.297 169.359 122.005 169.238 121.712 169.12L125.916 159.938C126.251 160.072 126.583 160.21 126.914 160.351L122.587 169.483ZM89.288 169.12C88.9946 169.238 88.7027 169.359 88.4124 169.483L84.8361 160.413C85.1667 160.272 85.4991 160.134 85.8334 160L89.288 169.12ZM125.166 170.688C124.884 170.545 124.6 170.405 124.315 170.267L126.914 164.859C127.239 165.016 127.562 165.175 127.883 165.338L125.166 170.688ZM86.6847 170.268C86.3992 170.405 86.1154 170.545 85.8334 170.688L83.1168 165.338C83.4379 165.175 83.761 165.016 84.0861 164.859L86.6847 170.268ZM127.66 172.059C127.389 171.898 127.115 171.74 126.839 171.584L129.787 166.358C130.101 166.535 130.412 166.716 130.722 166.899L127.66 172.059ZM84.1606 171.584C83.8849 171.74 83.6112 171.898 83.3393 172.059L80.2779 166.899C80.5873 166.716 80.8989 166.535 81.2127 166.358L84.1606 171.584ZM130.06 173.591C129.799 173.412 129.536 173.236 129.271 173.063L132.555 168.041C132.856 168.238 133.155 168.439 133.452 168.642L130.06 173.591ZM81.7282 173.063C81.4634 173.236 81.2005 173.412 80.9396 173.591L77.5476 168.642C77.8444 168.439 78.1434 168.238 78.4448 168.041L81.7282 173.063ZM132.355 175.277C132.106 175.081 131.855 174.888 131.602 174.698L135.206 169.901C135.494 170.118 135.78 170.337 136.063 170.559L132.355 175.277ZM79.3974 174.698C79.1443 174.888 78.8933 175.081 78.6445 175.277L74.937 170.559C75.22 170.337 75.5055 170.118 75.7934 169.901L79.3974 174.698ZM134.536 177.108C134.3 176.897 134.062 176.688 133.822 176.482L137.731 171.93C138.004 172.165 138.274 172.402 138.542 172.642L134.536 177.108ZM77.1774 176.482C76.9373 176.688 76.6994 176.897 76.4639 177.108L72.4574 172.642C72.7252 172.402 72.9957 172.165 73.2687 171.93L77.1774 176.482ZM136.593 179.078C136.372 178.852 136.148 178.628 135.922 178.407L143.677 170.237C143.934 170.488 144.189 170.743 144.44 171L136.593 179.078ZM75.0782 178.407C74.852 178.628 74.6282 178.852 74.4068 179.078L66.5593 171C66.811 170.743 67.0655 170.488 67.3227 170.236L75.0782 178.407ZM138.518 181.177C138.311 180.937 138.103 180.699 137.891 180.464L142.358 176.457C142.598 176.725 142.835 176.996 143.07 177.269L138.518 181.177ZM73.1084 180.464C72.8971 180.699 72.6884 180.937 72.4822 181.177L67.93 177.269C68.1645 176.996 68.4019 176.725 68.6421 176.457L73.1084 180.464ZM140.301 183.397C140.111 183.144 139.918 182.893 139.723 182.644L144.44 178.937C144.663 179.22 144.882 179.506 145.098 179.793L140.301 183.397ZM71.2768 182.644C71.0813 182.893 70.8884 183.144 70.6982 183.397L65.9012 179.793C66.1175 179.506 66.3369 179.22 66.5593 178.937L71.2768 182.644ZM141.936 185.728C141.763 185.463 141.587 185.201 141.409 184.94L146.358 181.548C146.561 181.844 146.761 182.143 146.958 182.445L141.936 185.728ZM69.5911 184.94C69.4124 185.201 69.2364 185.463 69.0632 185.728L64.0413 182.445C64.2384 182.143 64.4386 181.844 64.642 181.548L69.5911 184.94ZM143.416 188.161C143.26 187.885 143.102 187.611 142.94 187.339L148.101 184.278C148.284 184.587 148.464 184.899 148.641 185.213L143.416 188.161ZM68.0593 187.339C67.898 187.611 67.7396 187.885 67.5841 188.161L62.3582 185.213C62.5352 184.899 62.7155 184.587 62.899 184.278L68.0593 187.339ZM144.732 190.685C144.595 190.399 144.455 190.115 144.312 189.833L149.661 187.117C149.824 187.438 149.984 187.761 150.14 188.086L144.732 190.685ZM66.6881 189.833C66.5449 190.115 66.4047 190.399 66.2675 190.685L60.8594 188.086C61.0156 187.761 61.1753 187.438 61.3383 187.117L66.6881 189.833ZM145.879 193.288C145.761 192.995 145.64 192.703 145.516 192.412L155.586 188.003C155.728 188.333 155.866 188.666 156 189L145.879 193.288ZM65.4834 192.412C65.3593 192.703 65.2383 192.995 65.1203 193.288L55.4999 189C55.6342 188.666 55.7721 188.333 55.9134 188.003L65.4834 192.412ZM146.853 195.962C146.754 195.661 146.653 195.361 146.548 195.064L152.208 193.073C152.327 193.412 152.443 193.753 152.555 194.096L146.853 195.962ZM64.4517 195.064C64.3469 195.361 64.2453 195.661 64.1469 195.962L58.4443 194.096C58.5564 193.753 58.6722 193.412 58.7915 193.073L64.4517 195.064ZM147.648 198.695C147.57 198.387 147.488 198.082 147.403 197.777L153.182 196.164C153.279 196.511 153.372 196.859 153.461 197.209L147.648 198.695ZM63.5969 197.777C63.5119 198.082 63.4301 198.388 63.3516 198.695L57.5384 197.209C57.6278 196.859 57.721 196.511 57.8178 196.164L63.5969 197.777ZM148.261 201.472C148.203 201.161 148.142 200.851 148.077 200.542L153.95 199.314C154.024 199.665 154.093 200.018 154.159 200.372L148.261 201.472ZM62.9224 200.542C62.8578 200.851 62.7965 201.161 62.7385 201.472L56.8402 200.372C56.9062 200.018 56.9761 199.665 57.0496 199.314L62.9224 200.542ZM148.691 204.286C148.653 203.971 148.612 203.657 148.568 203.345L154.509 202.504C154.559 202.86 154.606 203.217 154.649 203.574L148.691 204.286ZM62.4315 203.345C62.3873 203.658 62.3464 203.971 62.3088 204.286L56.3511 203.575C56.3938 203.217 56.4404 202.86 56.4907 202.504L62.4315 203.345ZM148.936 207.125C148.919 206.807 148.899 206.491 148.875 206.175L154.858 205.723C154.885 206.082 154.908 206.442 154.928 206.803L148.936 207.125ZM62.1248 206.175C62.101 206.491 62.0805 206.807 62.0635 207.125L56.0721 206.803C56.0915 206.442 56.1148 206.082 56.1419 205.723L62.1248 206.175ZM149 209.5C149 209.34 148.999 209.181 148.997 209.022L159.497 208.958C159.499 209.138 159.5 209.319 159.5 209.5H149ZM62.0024 208.958C62.0007 209.117 61.9998 209.341 61.9998 209.5L52.5 209.5C52.5 209.319 52.501 209.139 52.5029 208.958L62.0024 208.958Z" fill="#E3383A"/>
<path fill-rule="evenodd" clip-rule="evenodd" d="M145.88 193.288C145.762 192.995 145.641 192.703 145.517 192.413L155.587 188.003C155.728 188.333 155.866 188.666 156 189L145.88 193.288ZM146.853 195.962C146.755 195.661 146.653 195.362 146.548 195.064L152.209 193.073C152.328 193.412 152.444 193.754 152.556 194.096L146.853 195.962ZM147.648 198.695C147.57 198.388 147.488 198.082 147.403 197.777L153.182 196.164C153.279 196.511 153.372 196.859 153.462 197.209L147.648 198.695ZM148.262 201.472C148.204 201.161 148.142 200.851 148.078 200.543L153.95 199.314C154.024 199.665 154.094 200.018 154.16 200.372L148.262 201.472ZM148.691 204.286C148.654 203.971 148.613 203.658 148.569 203.345L154.509 202.504C154.56 202.86 154.606 203.217 154.649 203.575L148.691 204.286ZM148.937 207.125C148.92 206.807 148.899 206.491 148.875 206.175L154.858 205.723C154.885 206.082 154.909 206.442 154.928 206.803L148.937 207.125ZM149 209.5C149 209.341 148.999 209.182 148.998 209.023L159.497 208.958C159.499 209.139 159.5 209.319 159.5 209.5H149Z" fill="#343A45"/>
<path d="M0 210.5H36.5" stroke="#B4DC7C" stroke-width="3"/>
<path d="M21 199H42" stroke="#B4DC7C" stroke-width="3"/>
<path d="M177 115H204" stroke="#A4D967" stroke-width="3"/>
<path d="M160 115H172" stroke="#A4D967" stroke-width="3"/>
<path d="M146 104H182" stroke="#B4DC7C" stroke-width="3"/>
<circle cx="161.5" cy="25.5" r="4.5" fill="#B4DFFE"/>
<circle cx="172.5" cy="36.5" r="2.5" fill="#B4DFFE"/>
</svg>
