<svg width="210" height="300" viewBox="0 0 210 300" fill="none" xmlns="http://www.w3.org/2000/svg">
<path d="M167.648 17C172.148 35 173.148 70.7 141.148 69.5C132.815 60.8333 126.448 38.2 167.648 17Z" fill="#70B020"/>
<path fill-rule="evenodd" clip-rule="evenodd" d="M140.858 69.1915C132.7 60.3359 126.967 38.1019 167.243 17.2095L140.858 69.1915Z" fill="#77C42A"/>
<rect x="6" y="145.136" width="74.7727" height="128.864" fill="#748995"/>
<rect x="6" y="145.136" width="37.3864" height="128.864" fill="#656D7A"/>
<rect x="6" y="145.136" width="19.0909" height="128.864" fill="#545D6C"/>
<rect x="61.6816" y="145.136" width="19.0909" height="128.864" fill="#545D6C"/>
<rect x="15.5449" y="165.818" width="55.6818" height="98.6364" fill="white"/>
<rect x="19.5225" y="169" width="47.7273" height="11.1364" fill="#4699D3"/>
<rect x="19.5225" y="182.523" width="47.7273" height="11.1364" fill="#4699D3"/>
<rect x="19.5225" y="196.045" width="47.7273" height="11.1364" fill="#4699D3"/>
<rect x="19.5225" y="209.568" width="47.7273" height="11.1364" fill="#4699D3"/>
<rect x="19.5225" y="169" width="23.8636" height="11.1364" fill="#3889C2"/>
<rect x="19.5225" y="182.523" width="23.8636" height="11.1364" fill="#3889C2"/>
<rect x="19.5225" y="196.045" width="23.8636" height="11.1364" fill="#3889C2"/>
<rect x="19.5225" y="209.568" width="23.8636" height="11.1364" fill="#3889C2"/>
<rect x="19.5225" y="223.091" width="47.7273" height="11.1364" fill="#79BEEE"/>
<rect x="19.5225" y="236.614" width="47.7273" height="11.1364" fill="#79BEEE"/>
<rect x="19.5225" y="250.136" width="47.7273" height="11.1364" fill="#79BEEE"/>
<rect x="19.5225" y="223.091" width="23.8636" height="11.1364" fill="#6DB4E7"/>
<rect x="19.5225" y="236.614" width="23.8636" height="11.1364" fill="#6DB4E7"/>
<rect x="19.5225" y="250.136" width="23.8636" height="11.1364" fill="#6DB4E7"/>
<path d="M37.0225 155.284H43.3861M49.7497 155.284H43.3861M43.3861 155.284V149.114V161.841" stroke="#6CBCF4" stroke-width="3"/>
<rect x="24.2949" y="134" width="38.1818" height="11.1364" fill="#BE8850"/>
<rect x="24.2949" y="134" width="19.8864" height="11.1364" fill="#AA6933"/>
<rect x="129" y="145.136" width="74.7727" height="128.864" fill="#748995"/>
<rect x="129" y="145.136" width="37.3864" height="128.864" fill="#656D7A"/>
<rect x="129" y="145.136" width="19.0909" height="128.864" fill="#545D6C"/>
<rect x="184.682" y="145.136" width="19.0909" height="128.864" fill="#545D6C"/>
<rect x="138.545" y="165.818" width="55.6818" height="98.6364" fill="white"/>
<rect x="142.522" y="169" width="47.7273" height="11.1364" fill="#4699D3"/>
<rect x="142.522" y="182.523" width="47.7273" height="11.1364" fill="#4699D3"/>
<rect x="142.522" y="196.045" width="47.7273" height="11.1364" fill="#4699D3"/>
<rect x="142.522" y="209.568" width="47.7273" height="11.1364" fill="#4699D3"/>
<rect x="142.522" y="169" width="23.8636" height="11.1364" fill="#3889C2"/>
<rect x="142.522" y="182.523" width="23.8636" height="11.1364" fill="#3889C2"/>
<rect x="142.522" y="196.045" width="23.8636" height="11.1364" fill="#3889C2"/>
<rect x="142.522" y="209.568" width="23.8636" height="11.1364" fill="#3889C2"/>
<rect x="142.522" y="223.091" width="47.7273" height="11.1364" fill="#79BEEE"/>
<rect x="142.522" y="236.614" width="47.7273" height="11.1364" fill="#79BEEE"/>
<rect x="142.522" y="250.136" width="47.7273" height="11.1364" fill="#79BEEE"/>
<rect x="142.522" y="223.091" width="23.8636" height="11.1364" fill="#6DB4E7"/>
<rect x="142.522" y="236.614" width="23.8636" height="11.1364" fill="#6DB4E7"/>
<rect x="142.522" y="250.136" width="23.8636" height="11.1364" fill="#6DB4E7"/>
<path d="M160.022 155.284H166.386M172.75 155.284H166.386M166.386 155.284V149.114V161.841" stroke="#6CBCF4" stroke-width="3"/>
<rect x="147.295" y="134" width="38.1818" height="11.1364" fill="#BE8850"/>
<rect x="147.295" y="134" width="19.8864" height="11.1364" fill="#AA6933"/>
<rect x="58" y="120" width="94" height="162" fill="#748995"/>
<rect x="58" y="120" width="47" height="162" fill="#656D7A"/>
<rect x="58" y="120" width="24" height="162" fill="#545D6C"/>
<rect x="128" y="120" width="24" height="162" fill="#545D6C"/>
<rect x="70" y="146" width="70" height="124" fill="white"/>
<rect x="75" y="150" width="60" height="14" fill="#4699D3"/>
<rect x="75" y="167" width="60" height="14" fill="#4699D3"/>
<rect x="75" y="184" width="60" height="14" fill="#4699D3"/>
<rect x="75" y="201" width="60" height="14" fill="#4699D3"/>
<rect x="75" y="150" width="30" height="14" fill="#3889C2"/>
<rect x="75" y="167" width="30" height="14" fill="#3889C2"/>
<rect x="75" y="184" width="30" height="14" fill="#3889C2"/>
<rect x="75" y="201" width="30" height="14" fill="#3889C2"/>
<rect x="75" y="218" width="60" height="14" fill="#79BEEE"/>
<rect x="75" y="235" width="60" height="14" fill="#79BEEE"/>
<rect x="75" y="252" width="60" height="14" fill="#79BEEE"/>
<rect x="75" y="218" width="30" height="14" fill="#6DB4E7"/>
<rect x="75" y="235" width="30" height="14" fill="#6DB4E7"/>
<rect x="75" y="252" width="30" height="14" fill="#6DB4E7"/>
<path d="M97 132.758H105M113 132.758H105M105 132.758V125V141" stroke="#6CBCF4" stroke-width="4"/>
<rect x="81" y="106" width="48" height="14" fill="#BE8850"/>
<rect x="81" y="106" width="25" height="14" fill="#AA6933"/>
<path d="M50 74.5H86.5" stroke="#B4DC7C" stroke-width="3"/>
<path d="M92 61H119" stroke="#A4D967" stroke-width="3"/>
<path d="M75 61H87" stroke="#A4D967" stroke-width="3"/>
<path d="M154 95H190.5" stroke="#B4DC7C" stroke-width="3"/>
</svg>
