<svg width="211" height="300" viewBox="0 0 211 300" fill="none" xmlns="http://www.w3.org/2000/svg">
<path d="M110.499 167.061C110.499 167.061 160.277 142.236 160.277 105V61.5576L110.499 42.9395L60.7217 61.5576V105C60.7217 142.236 110.499 167.061 110.499 167.061Z" fill="#4699D3"/>
<path d="M88.7227 113.91L115.328 69.3151V96.09H132.278L105.673 140.685V113.91H88.7227Z" fill="white"/>
<rect x="23" y="166" width="175" height="120" rx="3" fill="#545D6C"/>
<rect x="40" y="181" width="141" height="75" rx="3" fill="#748995"/>
<rect x="88" y="188.5" width="45" height="22.5" rx="1" fill="#545D6C"/>
<rect x="48" y="218.5" width="57.5" height="30" rx="1" fill="#545D6C"/>
<rect x="140.5" y="188.5" width="32.5" height="22.5" rx="1" fill="#545D6C"/>
<rect x="113" y="218.5" width="60" height="30" rx="1" fill="#545D6C"/>
<circle cx="65.5" cy="201" r="7.5" fill="#52A9E7"/>
<circle cx="90.5" cy="233.5" r="7.5" fill="#394355"/>
<circle cx="156.75" cy="199.75" r="3.75" fill="#394355"/>
<rect x="123" y="228.5" width="17.5" height="10" rx="1" fill="#394355"/>
<rect x="93" y="195" width="16" height="10" rx="1" fill="#394355"/>
<rect x="112" y="195" width="16" height="10" rx="1" fill="#394355"/>
<rect x="55.5" y="228.5" width="17.5" height="10" rx="1" fill="#394355"/>
<rect x="148" y="228.5" width="17.5" height="10" rx="1" fill="#394355"/>
<path d="M13 129.5H49.5" stroke="#B4DC7C" stroke-width="3"/>
<path d="M55 116H82" stroke="#A4D967" stroke-width="3"/>
<path d="M38 116H50" stroke="#A4D967" stroke-width="3"/>
<path d="M155 38H191" stroke="#B4DC7C" stroke-width="3"/>
<circle cx="181" cy="142" r="5" fill="#B4DFFE"/>
<path d="M49.4837 35.25C49.2951 35.6773 49.2388 36.1513 49.3221 36.6109C49.4055 37.0704 49.6246 37.4945 49.9512 37.8284L50.0362 37.9133C50.2996 38.1765 50.5086 38.489 50.6512 38.8329C50.7937 39.1769 50.8671 39.5456 50.8671 39.9179C50.8671 40.2903 50.7937 40.659 50.6512 41.0029C50.5086 41.3469 50.2996 41.6594 50.0362 41.9225C49.773 42.1859 49.4605 42.3949 49.1166 42.5375C48.7726 42.6801 48.4039 42.7535 48.0316 42.7535C47.6592 42.7535 47.2905 42.6801 46.9466 42.5375C46.6026 42.3949 46.2901 42.1859 46.027 41.9225L45.942 41.8375C45.6081 41.5109 45.184 41.2918 44.7245 41.2085C44.2649 41.1252 43.7909 41.1814 43.3637 41.37C42.9447 41.5496 42.5873 41.8478 42.3356 42.2279C42.0839 42.6079 41.9488 43.0533 41.947 43.5092V43.75C41.947 44.5015 41.6485 45.2221 41.1171 45.7535C40.5858 46.2848 39.8651 46.5834 39.1137 46.5834C38.3622 46.5834 37.6415 46.2848 37.1102 45.7535C36.5788 45.2221 36.2803 44.5015 36.2803 43.75V43.6225C36.2694 43.1536 36.1176 42.6988 35.8447 42.3173C35.5719 41.9358 35.1905 41.6453 34.7503 41.4834C34.323 41.2948 33.8491 41.2385 33.3895 41.3218C32.9299 41.4052 32.5059 41.6243 32.172 41.9508L32.087 42.0359C31.8239 42.2993 31.5114 42.5083 31.1674 42.6509C30.8234 42.7934 30.4548 42.8668 30.0824 42.8668C29.7101 42.8668 29.3414 42.7934 28.9974 42.6509C28.6534 42.5083 28.341 42.2993 28.0778 42.0359C27.8144 41.7727 27.6054 41.4602 27.4628 41.1163C27.3202 40.7723 27.2468 40.4036 27.2468 40.0313C27.2468 39.6589 27.3202 39.2902 27.4628 38.9463C27.6054 38.6023 27.8144 38.2898 28.0778 38.0267L28.1628 37.9417C28.4894 37.6078 28.7085 37.1837 28.7918 36.7242C28.8752 36.2646 28.8189 35.7906 28.6303 35.3634C28.4507 34.9443 28.1526 34.587 27.7725 34.3353C27.3924 34.0836 26.947 33.9485 26.4912 33.9467H26.2503C25.4989 33.9467 24.7782 33.6482 24.2469 33.1168C23.7155 32.5855 23.417 31.8648 23.417 31.1134C23.417 30.3619 23.7155 29.6412 24.2469 29.1099C24.7782 28.5785 25.4989 28.28 26.2503 28.28H26.3778C26.8467 28.2691 27.3015 28.1173 27.683 27.8444C28.0645 27.5715 28.3551 27.1902 28.517 26.75C28.7056 26.3227 28.7618 25.8487 28.6785 25.3892C28.5952 24.9296 28.3761 24.5056 28.0495 24.1717L27.9645 24.0867C27.7011 23.8235 27.4921 23.5111 27.3495 23.1671C27.2069 22.8231 27.1335 22.4544 27.1335 22.0821C27.1335 21.7098 27.2069 21.3411 27.3495 20.9971C27.4921 20.6531 27.7011 20.3407 27.9645 20.0775C28.2276 19.8141 28.5401 19.6051 28.8841 19.4625C29.228 19.3199 29.5967 19.2465 29.9691 19.2465C30.3414 19.2465 30.7101 19.3199 31.0541 19.4625C31.398 19.6051 31.7105 19.8141 31.9737 20.0775L32.0587 20.1625C32.3925 20.4891 32.8166 20.7082 33.2762 20.7915C33.7357 20.8749 34.2097 20.8186 34.637 20.63H34.7503C35.1693 20.4504 35.5267 20.1523 35.7784 19.7722C36.0301 19.3921 36.1652 18.9467 36.167 18.4909V18.25C36.167 17.4986 36.4655 16.7779 36.9969 16.2466C37.5282 15.7152 38.2489 15.4167 39.0003 15.4167C39.7518 15.4167 40.4724 15.7152 41.0038 16.2466C41.5351 16.7779 41.8337 17.4986 41.8337 18.25V18.3775C41.8355 18.8334 41.9706 19.2788 42.2223 19.6588C42.474 20.0389 42.8313 20.3371 43.2503 20.5167C43.6776 20.7053 44.1516 20.7615 44.6112 20.6782C45.0707 20.5949 45.4948 20.3758 45.8287 20.0492L45.9137 19.9642C46.1768 19.7008 46.4893 19.4918 46.8332 19.3492C47.1772 19.2066 47.5459 19.1332 47.9182 19.1332C48.2906 19.1332 48.6593 19.2066 49.0032 19.3492C49.3472 19.4918 49.6597 19.7008 49.9228 19.9642C50.1863 20.2273 50.3952 20.5398 50.5378 20.8838C50.6804 21.2277 50.7538 21.5964 50.7538 21.9688C50.7538 22.3411 50.6804 22.7098 50.5378 23.0538C50.3952 23.3977 50.1863 23.7102 49.9228 23.9734L49.8378 24.0584C49.5112 24.3922 49.2921 24.8163 49.2088 25.2759C49.1255 25.7354 49.1817 26.2094 49.3703 26.6367V26.75C49.5499 27.169 49.8481 27.5264 50.2282 27.7781C50.6082 28.0298 51.0536 28.1649 51.5095 28.1667H51.7503C52.5018 28.1667 53.2224 28.4652 53.7538 28.9966C54.2851 29.5279 54.5837 30.2486 54.5837 31C54.5837 31.7515 54.2851 32.4721 53.7538 33.0035C53.2224 33.5348 52.5018 33.8334 51.7503 33.8334H51.6228C51.167 33.8352 50.7216 33.9702 50.3415 34.222C49.9614 34.4737 49.6632 34.831 49.4837 35.25Z" fill="#B4DFFE"/>
<path d="M39 35.25C41.3472 35.25 43.25 33.3472 43.25 31C43.25 28.6528 41.3472 26.75 39 26.75C36.6528 26.75 34.75 28.6528 34.75 31C34.75 33.3472 36.6528 35.25 39 35.25Z" fill="white"/>
</svg>
