<svg width="210" height="300" viewBox="0 0 210 300" fill="none" xmlns="http://www.w3.org/2000/svg">
<path d="M66.5 113L41 85.5V70.5H29V45.5L39 34.5V16.5" stroke="#4699D3" stroke-width="2"/>
<path d="M144 190L169.5 217.5V232.5H181.5V257.5L171.5 268.5V286.5" stroke="#4699D3" stroke-width="2"/>
<path d="M123 113L148.5 85.5V70.5H160.5V45.5L150.5 34.5V16.5" stroke="#4699D3" stroke-width="2"/>
<path d="M91.5 190L66 217.5V232.5H54V257.5L64 268.5V286.5" stroke="#4699D3" stroke-width="2"/>
<path d="M75 113V85.5L56 65.5H38V46L57.5 26" stroke="#4699D3" stroke-width="2"/>
<path d="M135.5 190V217.5L154.5 237.5H172.5V257L153 277" stroke="#4699D3" stroke-width="2"/>
<path d="M86.5 113V84.5L62 57.5V43H78V12.5" stroke="#4699D3" stroke-width="2"/>
<path d="M124 190V218.5L148.5 245.5V260H132.5V290.5" stroke="#4699D3" stroke-width="2"/>
<path d="M100 113V80.5L80.5 61V51H93V37.5" stroke="#4699D3" stroke-width="2"/>
<path d="M110.5 190V222.5L130 242V252H117.5V265.5" stroke="#4699D3" stroke-width="2"/>
<path d="M107 112.5V19L101.5 13.5" stroke="#4699D3" stroke-width="2"/>
<path d="M103.5 190.5V284L109 289.5" stroke="#4699D3" stroke-width="2"/>
<path d="M114 113V22.3333L120 17" stroke="#4699D3" stroke-width="2"/>
<path d="M96.5 190V280.667L90.5 286" stroke="#4699D3" stroke-width="2"/>
<path d="M120.5 52V112.5" stroke="#4699D3" stroke-width="2"/>
<path d="M90 251V190.5" stroke="#4699D3" stroke-width="2"/>
<path d="M129 113V55L138.5 45V33.5" stroke="#4699D3" stroke-width="2"/>
<path d="M81.5 190V248L72 258V269.5" stroke="#4699D3" stroke-width="2"/>
<path d="M130 113L154.5 86V76H186.5V29" stroke="#4699D3" stroke-width="2"/>
<path d="M82.5 190L58 217V227H26V274" stroke="#4699D3" stroke-width="2"/>
<path d="M189.5 26C189.5 27.6569 188.157 29 186.5 29C184.843 29 183.5 27.6569 183.5 26C183.5 24.3431 184.843 23 186.5 23C188.157 23 189.5 24.3431 189.5 26Z" stroke="#4699D3" stroke-width="2"/>
<path d="M23 277C23 275.343 24.3431 274 26 274C27.6569 274 29 275.343 29 277C29 278.657 27.6569 280 26 280C24.3431 280 23 278.657 23 277Z" stroke="#4699D3" stroke-width="2"/>
<path d="M141 32C141 33.6569 139.657 35 138 35C136.343 35 135 33.6569 135 32C135 30.3431 136.343 29 138 29C139.657 29 141 30.3431 141 32Z" fill="#4699D3" stroke="#4699D3" stroke-width="2"/>
<path d="M69.5 271C69.5 269.343 70.8431 268 72.5 268C74.1569 268 75.5 269.343 75.5 271C75.5 272.657 74.1569 274 72.5 274C70.8431 274 69.5 272.657 69.5 271Z" fill="#4699D3" stroke="#4699D3" stroke-width="2"/>
<path d="M124 49C124 50.6569 122.657 52 121 52C119.343 52 118 50.6569 118 49C118 47.3431 119.343 46 121 46C122.657 46 124 47.3431 124 49Z" stroke="#4699D3" stroke-width="2"/>
<path d="M86.5 254C86.5 252.343 87.8431 251 89.5 251C91.1569 251 92.5 252.343 92.5 254C92.5 255.657 91.1569 257 89.5 257C87.8431 257 86.5 255.657 86.5 254Z" stroke="#4699D3" stroke-width="2"/>
<path d="M154 14C154 15.6569 152.657 17 151 17C149.343 17 148 15.6569 148 14C148 12.3431 149.343 11 151 11C152.657 11 154 12.3431 154 14Z" stroke="#4699D3" stroke-width="2"/>
<path d="M60.5 289C60.5 287.343 61.8431 286 63.5 286C65.1569 286 66.5 287.343 66.5 289C66.5 290.657 65.1569 292 63.5 292C61.8431 292 60.5 290.657 60.5 289Z" stroke="#4699D3" stroke-width="2"/>
<path d="M102 11C102 12.6569 100.657 14 99 14C97.3431 14 96 12.6569 96 11C96 9.34315 97.3431 8 99 8C100.657 8 102 9.34315 102 11Z" stroke="#4699D3" stroke-width="2"/>
<path d="M108.5 292C108.5 290.343 109.843 289 111.5 289C113.157 289 114.5 290.343 114.5 292C114.5 293.657 113.157 295 111.5 295C109.843 295 108.5 293.657 108.5 292Z" stroke="#4699D3" stroke-width="2"/>
<path d="M97 33C97 35.2091 95.2091 37 93 37C90.7909 37 89 35.2091 89 33C89 30.7909 90.7909 29 93 29C95.2091 29 97 30.7909 97 33Z" stroke="#4699D3" stroke-width="2"/>
<path d="M113.5 270C113.5 267.791 115.291 266 117.5 266C119.709 266 121.5 267.791 121.5 270C121.5 272.209 119.709 274 117.5 274C115.291 274 113.5 272.209 113.5 270Z" stroke="#4699D3" stroke-width="2"/>
<path d="M81.5 8C81.5 10.2091 79.7091 12 77.5 12C75.2909 12 73.5 10.2091 73.5 8C73.5 5.79086 75.2909 4 77.5 4C79.7091 4 81.5 5.79086 81.5 8Z" stroke="#4699D3" stroke-width="2"/>
<path d="M129 295C129 292.791 130.791 291 133 291C135.209 291 137 292.791 137 295C137 297.209 135.209 299 133 299C130.791 299 129 297.209 129 295Z" stroke="#4699D3" stroke-width="2"/>
<path d="M64 23C64 25.2091 62.2091 27 60 27C57.7909 27 56 25.2091 56 23C56 20.7909 57.7909 19 60 19C62.2091 19 64 20.7909 64 23Z" stroke="#4699D3" stroke-width="2"/>
<path d="M146.5 280C146.5 277.791 148.291 276 150.5 276C152.709 276 154.5 277.791 154.5 280C154.5 282.209 152.709 284 150.5 284C148.291 284 146.5 282.209 146.5 280Z" stroke="#4699D3" stroke-width="2"/>
<path d="M41.5 15C41.5 16.6569 40.1569 18 38.5 18C36.8431 18 35.5 16.6569 35.5 15C35.5 13.3431 36.8431 12 38.5 12C40.1569 12 41.5 13.3431 41.5 15Z" fill="#4699D3" stroke="#4699D3" stroke-width="2"/>
<path d="M169 288C169 286.343 170.343 285 172 285C173.657 285 175 286.343 175 288C175 289.657 173.657 291 172 291C170.343 291 169 289.657 169 288Z" fill="#4699D3" stroke="#4699D3" stroke-width="2"/>
<path d="M125 15C125 16.6569 123.657 18 122 18C120.343 18 119 16.6569 119 15C119 13.3431 120.343 12 122 12C123.657 12 125 13.3431 125 15Z" fill="#4699D3" stroke="#4699D3" stroke-width="2"/>
<path d="M85.5 288C85.5 286.343 86.8431 285 88.5 285C90.1569 285 91.5 286.343 91.5 288C91.5 289.657 90.1569 291 88.5 291C86.8431 291 85.5 289.657 85.5 288Z" fill="#4699D3" stroke="#4699D3" stroke-width="2"/>
<path d="M38.976 102C38.976 96.4771 43.4532 92 48.976 92H157.024C162.547 92 167.024 96.4772 167.024 102V114.303V128.364V142.182V156V170.061V184.121V198.182V210C167.024 215.523 162.547 220 157.024 220H48.9761C43.4532 220 38.976 215.523 38.976 210V198.182V184.121V170.061V156V142.182V128.364V114.303V102Z" fill="#545D6C"/>
<path d="M38.976 156H22M38.976 156V170.061M38.976 156V142.182M38.976 184.121H22M38.976 184.121V170.061M38.976 184.121V198.182M38.976 170.061H22M38.976 198.182V210C38.976 215.523 43.4532 220 48.9761 220H157.024C162.547 220 167.024 215.523 167.024 210V198.182M38.976 198.182H22M38.976 128.364H22M38.976 128.364V142.182M38.976 128.364V114.303M38.976 142.182H22M38.976 114.303V102C38.976 96.4771 43.4532 92 48.976 92H157.024C162.547 92 167.024 96.4772 167.024 102V114.303M38.976 114.303H22M167.024 114.303H184M167.024 114.303V128.364M167.024 128.364H184M167.024 128.364V142.182M167.024 142.182H184M167.024 142.182V156M167.024 156H184M167.024 156V170.061M167.024 170.061H184M167.024 170.061V184.121M167.024 184.121H184M167.024 184.121V198.182M167.024 198.182H184" stroke="#545D6C" stroke-width="4"/>
<path d="M158 121.5V101H48V119.5M158 121.5H139.5M158 121.5V137M158 137V211H137.5M158 137H127.5M137.5 211V197.5M137.5 211H128M118.5 211V193.5M118.5 211H128M118.5 211H93.5M128 211V183.5M48 189V211H93.5M48 189H68.5M48 189V178.25M48 167.5H108M48 167.5V178.25M48 167.5V153M48 131H68.5M48 131V119.5M48 131V153M48 119.5H78.5M48 178.25H86.5C90.366 178.25 93.5 181.384 93.5 185.25V211M48 153H94.5C100.023 153 104.5 148.523 104.5 143V127.5" stroke="white" stroke-width="2"/>
<rect x="48" y="101" width="110" height="110" stroke="#79BEEE" stroke-width="2"/>
<circle cx="109" cy="167" r="6" fill="#79BEEE"/>
<circle cx="128" cy="183" r="6" fill="#79BEEE"/>
<circle cx="68" cy="189" r="6" fill="white"/>
<circle cx="80" cy="119" r="6" fill="#79BEEE"/>
<circle cx="104" cy="127" r="6" fill="white"/>
<circle cx="127" cy="137" r="6" fill="white"/>
</svg>
