<svg width="410" height="410" viewBox="0 0 410 410" fill="none" xmlns="http://www.w3.org/2000/svg">
<path d="M125.884 93.3812C128.041 83.518 138.212 77.6457 147.832 80.7091L163.374 85.658C169.755 87.6903 176.736 85.8197 181.247 80.8688L192.232 68.8123C199.031 61.3491 210.776 61.3491 217.576 68.8124L228.56 80.8688C233.071 85.8197 240.052 87.6903 246.434 85.658L261.975 80.7091C271.596 77.6457 281.767 83.518 283.924 93.3812L287.409 109.315C288.84 115.858 293.95 120.968 300.493 122.399L316.426 125.884C326.29 128.041 332.162 138.212 329.098 147.832L324.15 163.374C322.117 169.755 323.988 176.736 328.939 181.247L340.995 192.232C348.458 199.032 348.458 210.776 340.995 217.576L328.939 228.56C323.988 233.071 322.117 240.052 324.15 246.434L329.098 261.975C332.162 271.596 326.29 281.767 316.426 283.924L300.493 287.409C293.95 288.84 288.84 293.95 287.409 300.493L283.924 316.426C281.767 326.29 271.596 332.162 261.975 329.098L246.434 324.15C240.052 322.117 233.071 323.988 228.56 328.939L217.576 340.995C210.776 348.458 199.031 348.458 192.232 340.995L181.247 328.939C176.736 323.988 169.755 322.117 163.374 324.15L147.832 329.098C138.212 332.162 128.041 326.29 125.884 316.426L122.399 300.493C120.968 293.95 115.858 288.84 109.315 287.409L93.3812 283.924C83.518 281.767 77.6457 271.596 80.7091 261.975L85.658 246.434C87.6903 240.052 85.8197 233.071 80.8688 228.56L68.8123 217.576C61.3491 210.776 61.3491 199.032 68.8123 192.232L80.8688 181.247C85.8197 176.736 87.6903 169.755 85.658 163.374L80.7091 147.832C77.6457 138.212 83.518 128.041 93.3812 125.884L109.315 122.399C115.858 120.968 120.968 115.858 122.399 109.315L125.884 93.3812Z" fill="#FFB865"/>
<path d="M158.735 199.937C159.951 202.044 160.665 204.196 160.877 206.393C161.109 208.58 160.822 210.717 160.017 212.805C159.193 214.905 157.937 216.88 156.248 218.732C154.567 220.553 152.248 222.317 149.29 224.025C145.927 225.967 142.875 227.355 140.135 228.189C137.414 229.013 135.099 229.512 133.189 229.686L127.782 220.32L128.826 219.718C130.991 219.808 133.349 219.606 135.9 219.113C138.47 218.609 140.634 217.849 142.393 216.833C143.437 216.231 144.518 215.491 145.635 214.614C146.761 213.706 147.561 212.703 148.035 211.604C148.413 210.742 148.594 209.851 148.579 208.932C148.572 207.982 148.195 206.86 147.447 205.564C146.71 204.289 145.867 203.474 144.915 203.121C143.953 202.749 142.919 202.676 141.812 202.903C140.694 203.11 139.477 203.568 138.159 204.277C136.842 204.986 135.69 205.625 134.704 206.194L132.849 207.266L128.462 199.669L130.173 198.681C131.488 197.922 132.662 197.166 133.697 196.414C134.732 195.662 135.536 194.889 136.108 194.095C136.669 193.281 136.973 192.423 137.019 191.52C137.084 190.606 136.793 189.588 136.145 188.467C135.643 187.597 135.033 187.009 134.314 186.702C133.585 186.376 132.831 186.231 132.053 186.268C131.156 186.321 130.211 186.558 129.216 186.978C128.221 187.398 127.395 187.797 126.738 188.177C125.674 188.791 124.664 189.541 123.708 190.429C122.751 191.316 121.862 192.254 121.041 193.244C120.408 194.022 119.792 194.919 119.193 195.935C118.583 196.932 118.138 197.678 117.857 198.175L116.958 198.694L111.618 189.444C112.738 187.947 114.387 186.183 116.566 184.152C118.752 182.091 121.16 180.301 123.789 178.783C126.36 177.299 128.711 176.238 130.843 175.6C132.994 174.951 134.982 174.666 136.807 174.747C138.801 174.807 140.572 175.331 142.121 176.318C143.66 177.286 144.936 178.649 145.952 180.408C147.37 182.863 147.899 185.431 147.54 188.113C147.189 190.764 146.01 193.03 144.002 194.911L144.237 195.317C145.351 194.88 146.497 194.566 147.675 194.375C148.873 194.173 150.176 194.22 151.584 194.516C152.889 194.767 154.168 195.331 155.421 196.205C156.681 197.05 157.786 198.294 158.735 199.937ZM192.146 169.28C194.3 173.011 195.887 176.451 196.906 179.6C197.925 182.749 198.318 185.64 198.086 188.274C197.854 190.908 196.964 193.317 195.415 195.5C193.855 197.664 191.548 199.627 188.493 201.391C185.458 203.143 182.614 204.154 179.96 204.423C177.295 204.673 174.743 204.226 172.304 203.082C169.896 201.947 167.594 200.17 165.399 197.752C163.192 195.314 161.018 192.239 158.875 188.528C156.665 184.7 155.069 181.266 154.086 178.225C153.123 175.172 152.764 172.274 153.009 169.529C153.258 166.834 154.177 164.409 155.768 162.253C157.347 160.078 159.606 158.143 162.545 156.446C165.657 154.649 168.532 153.647 171.169 153.438C173.815 153.2 176.363 153.662 178.813 154.825C181.221 155.96 183.519 157.752 185.706 160.201C187.912 162.639 190.059 165.665 192.146 169.28ZM181.272 175.558C178.192 170.223 175.588 166.739 173.46 165.106C171.34 163.444 169.236 163.215 167.148 164.42C165.08 165.614 164.226 167.551 164.587 170.229C164.937 172.888 166.663 176.905 169.765 182.279C172.801 187.537 175.4 191.011 177.561 192.701C179.712 194.372 181.821 194.611 183.889 193.417C185.958 192.222 186.806 190.276 186.434 187.579C186.051 184.862 184.33 180.855 181.272 175.558ZM210.458 164.232C216.813 160.563 218.19 152.8 213.081 143.952C207.973 135.104 200.664 132.593 194.31 136.262C188.015 139.896 186.475 147.515 191.584 156.363C196.693 165.212 204.164 167.866 210.458 164.232ZM207.578 159.243C205.025 160.718 201.497 159.271 197.76 152.798C194.023 146.325 194.602 142.665 197.156 141.191C199.768 139.682 203.228 141.01 206.965 147.483C210.702 153.956 210.191 157.735 207.578 159.243ZM252.837 163.439C259.132 159.805 260.568 152.008 255.494 143.219C250.385 134.37 242.983 131.835 236.688 135.469C230.394 139.103 228.829 146.816 233.937 155.664C239.012 164.453 246.542 167.073 252.837 163.439ZM249.991 158.51C247.378 160.019 243.816 158.512 240.113 152.099C236.342 145.566 236.955 141.966 239.568 140.457C242.181 138.949 245.547 140.252 249.318 146.784C253.021 153.198 252.604 157.002 249.991 158.51ZM222.194 181.131L227.361 178.148L225.012 118.536L219.786 121.553L222.194 181.131ZM208.364 247.537C213.064 255.679 214.586 263.34 212.929 270.522C211.271 277.703 206.654 283.482 199.076 287.857C191.476 292.245 184.15 293.332 177.098 291.118C170.034 288.882 164.184 283.75 159.548 275.721C154.874 267.625 153.348 259.981 154.969 252.79C156.578 245.576 161.183 239.776 168.783 235.388C176.361 231.013 183.68 229.914 190.741 232.092C197.789 234.247 203.663 239.396 208.364 247.537ZM195.286 255.043C193.554 252.043 191.767 249.677 189.925 247.944C188.092 246.176 186.266 244.914 184.448 244.16C182.571 243.409 180.775 243.138 179.061 243.346C177.356 243.518 175.771 244.028 174.305 244.874C172.749 245.772 171.502 246.868 170.565 248.161C169.614 249.432 168.963 251.116 168.61 253.214C168.328 255.121 168.485 257.346 169.081 259.888C169.7 262.418 170.875 265.182 172.606 268.182C174.39 271.272 176.179 273.667 177.973 275.368C179.754 277.046 181.571 278.267 183.426 279.03C185.315 279.804 187.124 280.098 188.851 279.912C190.565 279.704 192.156 279.177 193.621 278.331C195.11 277.472 196.371 276.323 197.405 274.884C198.425 273.422 199.053 271.722 199.286 269.783C199.522 267.692 199.374 265.508 198.84 263.23C198.294 260.929 197.109 258.2 195.286 255.043ZM240.598 208.134L219.454 220.341L224.943 229.847L244.394 218.616L249.941 228.224L230.49 239.454L242.99 261.105L230.405 268.37L201.323 217.999L235.051 198.526L240.598 208.134ZM280.854 184.891L259.711 197.098L265.199 206.604L284.651 195.374L290.198 204.981L270.746 216.212L283.246 237.862L270.662 245.128L241.58 194.757L275.307 175.284L280.854 184.891Z" fill="white"/>
</svg>
