<svg width="210" height="300" viewBox="0 0 210 300" fill="none" xmlns="http://www.w3.org/2000/svg">
<path d="M0 218.2H36.5" stroke="#B4DC7C" stroke-width="3"/>
<path d="M42 204.7H69" stroke="#A4D967" stroke-width="3"/>
<path d="M25 204.7H37" stroke="#A4D967" stroke-width="3"/>
<path d="M172 271H208" stroke="#B4DC7C" stroke-width="3"/>
<path fill-rule="evenodd" clip-rule="evenodd" d="M9.19984 74.0504C4.63512 73.8363 1 70.0677 1 65.45C1 61.3509 3.86453 57.9208 7.70101 57.0524C8.58442 51.3583 13.5082 47 19.4499 47C25.4146 47 30.3535 51.3921 31.2088 57.1187C31.9054 56.9368 32.6364 56.84 33.3899 56.84C38.1451 56.84 41.9999 60.6948 41.9999 65.45C41.9999 70.2052 38.1451 74.06 33.3899 74.06C33.3852 74.06 33.3805 74.06 33.3757 74.06H9.62419C9.61946 74.06 9.61473 74.06 9.61 74.06C9.60527 74.06 9.60054 74.06 9.59581 74.06H9.19984V74.0504Z" fill="#B4E0FF"/>
<path fill-rule="evenodd" clip-rule="evenodd" d="M160.133 40.0258C153.379 39.7089 148 34.1326 148 27.3C148 21.2345 152.239 16.159 157.916 14.8742C159.223 6.44878 166.508 0 175.3 0C184.126 0 191.434 6.49893 192.7 14.9723C193.73 14.7033 194.812 14.56 195.927 14.56C202.963 14.56 208.667 20.2639 208.667 27.3C208.667 34.3361 202.963 40.04 195.927 40.04C195.924 40.04 195.92 40.04 195.917 40.04H160.75C160.747 40.04 160.743 40.04 160.74 40.04C160.737 40.04 160.733 40.04 160.73 40.04H160.133V40.0258Z" fill="#B4E0FF"/>
<rect x="52" y="73.7002" width="134" height="214" rx="14" fill="#545D6C"/>
<circle cx="119" cy="223.7" r="42" fill="#3889C2"/>
<path d="M144 199.7L96 247.7" stroke="#79BEEE" stroke-width="26"/>
<rect x="65" y="86.7002" width="108" height="60" rx="4" fill="#DFE0DF"/>
<circle cx="162" cy="166.7" r="9" fill="#E3383A"/>
<circle cx="74" cy="166.7" r="9" fill="#AA6933"/>
<path d="M160.954 129.7C151.054 117.498 135.937 109.7 119 109.7C102.062 109.7 86.9455 117.498 77.0449 129.7" stroke="#4699D3" stroke-width="26"/>
<path d="M160.954 129.7C156.093 123.709 149.974 118.779 143 115.313" stroke="#E3383A" stroke-width="26"/>
<path fill-rule="evenodd" clip-rule="evenodd" d="M115.277 136.056L119 107.2L124.469 135.455C124.809 136.13 125 136.893 125 137.7C125 137.839 124.994 137.977 124.983 138.113L125 138.2H124.975C124.724 140.727 122.593 142.7 120 142.7C117.407 142.7 115.276 140.727 115.025 138.2H115L115.015 138.086C115.005 137.959 115 137.83 115 137.7C115 137.124 115.097 136.571 115.277 136.056Z" fill="#5A6861"/>
</svg>
