<svg width="210" height="300" viewBox="0 0 210 300" fill="none" xmlns="http://www.w3.org/2000/svg">
<path d="M5 263L28.1724 117H110.931L133 263H5Z" fill="#545D6C"/>
<circle cx="41" cy="128" r="5" fill="white"/>
<circle cx="97" cy="128" r="5" fill="white"/>
<path d="M97 129V87.5C97 71.7599 84.2401 59 68.5 59V59C52.7599 59 40 71.7599 40 87.5V129" stroke="#545D6C" stroke-width="4"/>
<path d="M89 263L110 140H185L205 263H89Z" fill="#4699D3"/>
<circle cx="123" cy="152" r="5" fill="white"/>
<circle cx="171" cy="152" r="5" fill="white"/>
<path d="M171 154V116C171 102.745 160.255 92 147 92V92C133.745 92 123 102.745 123 116V154" stroke="#4699D3" stroke-width="4"/>
<path d="M136 65.5H172.5" stroke="#B4DC7C" stroke-width="3"/>
<path d="M178 52H205" stroke="#A4D967" stroke-width="3"/>
<path d="M78 282H105" stroke="#A4D967" stroke-width="3"/>
<path d="M161 52H173" stroke="#A4D967" stroke-width="3"/>
<path d="M61 282H73" stroke="#A4D967" stroke-width="3"/>
<path d="M4 190H40" stroke="#B4DC7C" stroke-width="3"/>
<path fill-rule="evenodd" clip-rule="evenodd" d="M19.6674 28.9922C15.9558 28.8186 13 25.7545 13 22C13 18.6675 15.3286 15.879 18.4475 15.1728C19.1657 10.5434 23.1688 7 27.9994 7C32.8489 7 36.8643 10.5709 37.5596 15.2268C38.1262 15.0788 38.7207 15 39.3337 15C43.1997 15 46.3337 18.134 46.3337 22C46.3337 25.866 43.1997 29 39.3337 29C39.3261 29 39.3185 29 39.3109 29H20.0228C20.0152 29 20.0076 29 20 29C19.9924 29 19.9848 29 19.9772 29H19.6674V28.9922Z" fill="#B4DFFE"/>
<circle cx="64" cy="29" r="5" fill="#B4DFFE"/>
<circle cx="197" cy="112" r="5" fill="#B4DFFE"/>
<circle r="2.5" transform="matrix(-1 0 0 1 91.5 9.5)" fill="#B4DFFE"/>
</svg>
