<svg width="630" height="121" viewBox="0 0 630 121" fill="none" xmlns="http://www.w3.org/2000/svg">
<path opacity="0.3" d="M0.588 118H-1.412V120H0.588V118ZM70.108 55.59H68.108V57.1266L69.5927 57.5225L70.108 55.59ZM70.108 54.958L69.3921 53.0905L68.108 53.5828V54.958H70.108ZM0.588 0.447998V-1.552H-1.412V0.447998H0.588ZM28.87 47.058H26.87V49.058H28.87V47.058ZM28.87 21.936V19.936H26.87V21.936H28.87ZM28.87 96.354H26.87V98.354H28.87V96.354ZM28.87 67.914V65.914H26.87V67.914H28.87ZM0.588 120H44.986V116H0.588V120ZM44.986 120C58.0216 120 69.9618 117.271 78.7046 111.275C87.543 105.215 92.964 95.908 92.964 83.24H88.964C88.964 94.588 84.194 102.661 76.4425 107.977C68.5952 113.357 57.5464 116 44.986 116V120ZM92.964 83.24C92.964 75.016 90.5879 68.4303 86.5277 63.4678C82.4801 58.5207 76.872 55.3238 70.6233 53.6575L69.5927 57.5225C75.194 59.0162 80.0139 61.8233 83.4318 66.0007C86.8371 70.1627 88.964 75.822 88.964 83.24H92.964ZM72.108 55.59V54.958H68.108V55.59H72.108ZM70.8239 56.8255C81.306 52.8073 87.434 40.501 87.434 29.52H83.434C83.434 39.395 77.87 49.8407 69.3921 53.0905L70.8239 56.8255ZM87.434 29.52C87.434 23.5781 86.1537 18.5778 83.7459 14.4398C81.3376 10.3009 77.8664 7.13642 73.656 4.7681C65.3023 0.0691376 53.9411 -1.552 41.668 -1.552V2.448C53.7269 2.448 64.2487 4.06586 71.695 8.2544C75.3846 10.3298 78.2926 13.0212 80.2886 16.4515C82.2851 19.8827 83.434 24.1649 83.434 29.52H87.434ZM41.668 -1.552H0.588V2.448H41.668V-1.552ZM-1.412 0.447998V118H2.588V0.447998H-1.412ZM30.87 47.058V21.936H26.87V47.058H30.87ZM28.87 23.936H40.562V19.936H28.87V23.936ZM40.562 23.936C46.3741 23.936 50.2243 24.8047 52.5837 26.3831C54.7663 27.8432 55.942 30.0988 55.942 33.786H59.942C59.942 29.0992 58.3527 25.4298 54.8078 23.0584C51.4397 20.8053 46.5999 19.936 40.562 19.936V23.936ZM55.942 33.786C55.942 37.3402 54.7797 40.0342 52.4938 41.8915C50.1409 43.8033 46.3166 45.058 40.562 45.058V49.058C46.8154 49.058 51.6812 47.7057 55.0162 44.996C58.4183 42.2318 59.942 38.2898 59.942 33.786H55.942ZM40.562 45.058H28.87V49.058H40.562V45.058ZM30.87 96.354V67.914H26.87V96.354H30.87ZM28.87 69.914H42.932V65.914H28.87V69.914ZM42.932 69.914C49.7041 69.914 54.3658 70.8641 57.2906 72.7069C60.0211 74.4273 61.472 77.078 61.472 81.344H65.472C65.472 75.972 63.5259 71.9077 59.4229 69.3226C55.5142 66.8599 49.9059 65.914 42.932 65.914V69.914ZM61.472 81.344C61.472 85.8878 59.9451 88.9786 57.1245 91.0211C54.1831 93.1511 49.5461 94.354 42.932 94.354V98.354C49.9059 98.354 55.5389 97.1079 59.4705 94.2609C63.5229 91.3264 65.472 86.9122 65.472 81.344H61.472ZM42.932 94.354H28.87V98.354H42.932V94.354ZM107.287 118H105.287V120H107.287V118ZM181.231 118V120H183.231V118H181.231ZM181.231 94.3H183.231V92.3H181.231V94.3ZM135.569 94.3H133.569V96.3H135.569V94.3ZM135.569 0.447998H137.569V-1.552H135.569V0.447998ZM107.287 0.447998V-1.552H105.287V0.447998H107.287ZM107.287 120H181.231V116H107.287V120ZM183.231 118V94.3H179.231V118H183.231ZM181.231 92.3H135.569V96.3H181.231V92.3ZM137.569 94.3V0.447998H133.569V94.3H137.569ZM135.569 -1.552H107.287V2.448H135.569V-1.552ZM105.287 0.447998V118H109.287V0.447998H105.287ZM285.782 0.447998H287.782V-1.552H285.782V0.447998ZM258.606 0.447998V-1.552H256.606V0.447998H258.606ZM219.106 0.447998H221.106V-1.552H219.106V0.447998ZM190.982 0.447998V-1.552H188.982V0.447998H190.982ZM238.698 122.212C254.725 122.212 267.151 117.624 275.507 107.609C283.8 97.6699 287.782 82.7374 287.782 62.7H283.782C283.782 82.3206 279.864 96.1441 272.436 105.046C265.07 113.873 253.954 118.212 238.698 118.212V122.212ZM287.782 62.7V0.447998H283.782V62.7H287.782ZM285.782 -1.552H258.606V2.448H285.782V-1.552ZM256.606 0.447998V65.702H260.606V0.447998H256.606ZM256.606 65.702C256.606 76.7079 254.834 83.74 251.82 87.9879C248.917 92.0784 244.643 93.88 238.698 93.88V97.88C245.551 97.88 251.23 95.7316 255.082 90.3026C258.823 85.031 260.606 76.9741 260.606 65.702H256.606ZM238.698 93.88C232.671 93.88 228.492 92.078 225.69 88.0107C222.765 83.7645 221.106 76.7298 221.106 65.702H217.106C217.106 76.9522 218.764 85.0065 222.396 90.2798C226.152 95.732 231.769 97.88 238.698 97.88V93.88ZM221.106 65.702V0.447998H217.106V65.702H221.106ZM219.106 -1.552H190.982V2.448H219.106V-1.552ZM188.982 0.447998V62.7H192.982V0.447998H188.982ZM188.982 62.7C188.982 82.7492 193.087 97.6847 201.524 107.622C210.019 117.626 222.595 122.212 238.698 122.212V118.212C223.358 118.212 212.077 113.871 204.574 105.033C197.014 96.1293 192.982 82.3088 192.982 62.7H188.982ZM308.96 118H306.96V120H308.96V118ZM385.274 118V120H387.274V118H385.274ZM385.274 94.3H387.274V92.3H385.274V94.3ZM337.242 94.3H335.242V96.3H337.242V94.3ZM337.242 69.336V67.336H335.242V69.336H337.242ZM376.584 69.336V71.336H378.584V69.336H376.584ZM376.584 45.636H378.584V43.636H376.584V45.636ZM337.242 45.636H335.242V47.636H337.242V45.636ZM337.242 23.832V21.832H335.242V23.832H337.242ZM383.536 23.832V25.832H385.536V23.832H383.536ZM383.536 0.447998H385.536V-1.552H383.536V0.447998ZM308.96 0.447998V-1.552H306.96V0.447998H308.96ZM308.96 120H385.274V116H308.96V120ZM387.274 118V94.3H383.274V118H387.274ZM385.274 92.3H337.242V96.3H385.274V92.3ZM339.242 94.3V69.336H335.242V94.3H339.242ZM337.242 71.336H376.584V67.336H337.242V71.336ZM378.584 69.336V45.636H374.584V69.336H378.584ZM376.584 43.636H337.242V47.636H376.584V43.636ZM339.242 45.636V23.832H335.242V45.636H339.242ZM337.242 25.832H383.536V21.832H337.242V25.832ZM385.536 23.832V0.447998H381.536V23.832H385.536ZM383.536 -1.552H308.96V2.448H383.536V-1.552ZM306.96 0.447998V118H310.96V0.447998H306.96ZM428.073 118H426.073V120H428.073V118ZM456.355 118V120H458.355V118H456.355ZM456.355 23.832V21.832H454.355V23.832H456.355ZM488.271 23.832V25.832H490.271V23.832H488.271ZM488.271 0.447998H490.271V-1.552H488.271V0.447998ZM396.315 0.447998V-1.552H394.315V0.447998H396.315ZM396.315 23.832H394.315V25.832H396.315V23.832ZM428.073 23.832H430.073V21.832H428.073V23.832ZM428.073 120H456.355V116H428.073V120ZM458.355 118V23.832H454.355V118H458.355ZM456.355 25.832H488.271V21.832H456.355V25.832ZM490.271 23.832V0.447998H486.271V23.832H490.271ZM488.271 -1.552H396.315V2.448H488.271V-1.552ZM394.315 0.447998V23.832H398.315V0.447998H394.315ZM396.315 25.832H428.073V21.832H396.315V25.832ZM426.073 23.832V118H430.073V23.832H426.073ZM525.978 118H523.978V120H525.978V118ZM554.26 118V120H556.26V118H554.26ZM554.26 23.832V21.832H552.26V23.832H554.26ZM586.176 23.832V25.832H588.176V23.832H586.176ZM586.176 0.447998H588.176V-1.552H586.176V0.447998ZM494.22 0.447998V-1.552H492.22V0.447998H494.22ZM494.22 23.832H492.22V25.832H494.22V23.832ZM525.978 23.832H527.978V21.832H525.978V23.832ZM525.978 120H554.26V116H525.978V120ZM556.26 118V23.832H552.26V118H556.26ZM554.26 25.832H586.176V21.832H554.26V25.832ZM588.176 23.832V0.447998H584.176V23.832H588.176ZM586.176 -1.552H494.22V2.448H586.176V-1.552ZM492.22 0.447998V23.832H496.22V0.447998H492.22ZM494.22 25.832H525.978V21.832H494.22V25.832ZM523.978 23.832V118H527.978V23.832H523.978ZM601.13 118H599.13V120H601.13V118ZM629.412 118V120H631.412V118H629.412ZM629.412 0.447998H631.412V-1.552H629.412V0.447998ZM601.13 0.447998V-1.552H599.13V0.447998H601.13ZM601.13 120H629.412V116H601.13V120ZM631.412 118V0.447998H627.412V118H631.412ZM629.412 -1.552H601.13V2.448H629.412V-1.552ZM599.13 0.447998V118H603.13V0.447998H599.13Z" fill="url(#paint0_linear)"/>
<defs>
<linearGradient id="paint0_linear" x1="-1.32864" y1="131" x2="620.083" y2="131" gradientUnits="userSpaceOnUse">
<stop stop-color="#74D9F6"/>
<stop offset="0.505208" stop-color="#DE55FF"/>
<stop offset="1" stop-color="#5020EE"/>
</linearGradient>
</defs>
</svg>
