<svg width="80" height="80" viewBox="0 0 80 80" fill="none" xmlns="http://www.w3.org/2000/svg">
<path d="M21.6667 27.5H17.1944C9.07893 27.5 2.5 34.0292 2.5 42.0833C2.5 50.1375 9.07893 56.6667 17.1944 56.6667H21.6667V27.5Z" stroke="#636363" stroke-width="2"/>
<path d="M58.3333 27.5H62.8056C70.9211 27.5 77.5 34.0292 77.5 42.0833C77.5 50.1375 70.9211 56.6667 62.8056 56.6667H58.3333V27.5Z" stroke="#636363" stroke-width="2"/>
<path d="M15 27.5V26.9048C15 13.4264 25.8198 2.5 39.1667 2.5C52.5135 2.5 63.3333 13.4264 63.3333 26.9048V27.5" stroke="#636363" stroke-width="2"/>
<path d="M63.3333 56.6666C60.2926 63.4265 54.1901 68.6646 46.6667 70.8333" stroke="#636363" stroke-width="2"/>
<circle cx="40" cy="70.8333" r="5.83333" stroke="#636363" stroke-width="2"/>
</svg>
